<svg width="20" height="20" viewBox="0 0 20 20" fill="none" xmlns="http://www.w3.org/2000/svg">
<path d="M3.33331 8.33374L3.03831 8.62874L2.74414 8.33374L3.03831 8.03874L3.33331 8.33374ZM17.0833 15.0004C17.0833 15.1109 17.0394 15.2169 16.9613 15.295C16.8831 15.3732 16.7771 15.4171 16.6666 15.4171C16.5561 15.4171 16.4502 15.3732 16.372 15.295C16.2939 15.2169 16.25 15.1109 16.25 15.0004H17.0833ZM7.20497 12.7954L3.03831 8.62874L3.62831 8.03874L7.79497 12.2054L7.20497 12.7954ZM3.03831 8.03874L7.20497 3.87207L7.79497 4.46207L3.62831 8.62874L3.03831 8.03874ZM3.33331 7.91707H11.6666V8.7504H3.33331V7.91707ZM17.0833 13.3337V15.0004H16.25V13.3337H17.0833ZM11.6666 7.91707C13.1032 7.91707 14.481 8.48775 15.4968 9.50358C16.5126 10.5194 17.0833 11.8971 17.0833 13.3337H16.25C16.25 12.1182 15.7671 10.9524 14.9075 10.0928C14.048 9.23329 12.8822 8.7504 11.6666 8.7504V7.91707Z" fill="#767676"/>
</svg>
