<svg width="28" height="28" viewBox="0 0 28 28" fill="none" xmlns="http://www.w3.org/2000/svg">
<path d="M14 6.12471C14 6.12471 7.875 0.874706 1.75 5.24971V24.4997C7.875 20.1247 14 24.4997 14 24.4997C14 24.4997 20.125 20.1247 26.25 24.4997V5.24971C20.125 0.874706 14 6.12471 14 6.12471ZM14 6.12471V24.4997V6.12471Z" fill="#FF6738" fill-opacity="0.15"/>
<path d="M14 6.12471C14 6.12471 7.875 0.874706 1.75 5.24971V24.4997C7.875 20.1247 14 24.4997 14 24.4997M14 6.12471C14 6.12471 20.125 0.874706 26.25 5.24971V24.4997C20.125 20.1247 14 24.4997 14 24.4997M14 6.12471V24.4997" stroke="#FF6738" stroke-linecap="round" stroke-linejoin="round"/>
</svg>
