<svg width="22" height="22" viewBox="0 0 22 22" fill="none" xmlns="http://www.w3.org/2000/svg">
<path d="M10.9997 14.2796L7.75559 11.0364L8.40459 10.3764L10.5413 12.5132V4.58398H11.458V12.5132L13.5938 10.3773L14.2438 11.0364L10.9997 14.2796ZM6.06434 17.4173C5.64206 17.4173 5.28976 17.2762 5.00742 16.9938C4.72509 16.7115 4.58362 16.3589 4.58301 15.936V13.7149H5.49967V15.936C5.49967 16.0772 5.55834 16.2067 5.67567 16.3247C5.79301 16.4426 5.92226 16.5013 6.06342 16.5007H15.9359C16.0765 16.5007 16.2057 16.442 16.3237 16.3247C16.4416 16.2073 16.5003 16.0778 16.4997 15.936V13.7149H17.4163V15.936C17.4163 16.3583 17.2752 16.7106 16.9928 16.9929C16.7105 17.2752 16.3579 17.4167 15.935 17.4173H6.06434Z" fill="#FF6738"/>
</svg>
