<svg width="20" height="20" viewBox="0 0 20 20" fill="none" xmlns="http://www.w3.org/2000/svg">
<path d="M10.0003 12.9812L7.05116 10.0328L7.64116 9.43283L9.58366 11.3753V4.16699H10.417V11.3753L12.3587 9.43366L12.9495 10.0328L10.0003 12.9812ZM5.51366 15.8337C5.12977 15.8337 4.80949 15.7053 4.55283 15.4487C4.29616 15.192 4.16755 14.8714 4.16699 14.487V12.4678H5.00033V14.487C5.00033 14.6153 5.05366 14.7331 5.16033 14.8403C5.26699 14.9475 5.38449 15.0009 5.51283 15.0003H14.4878C14.6156 15.0003 14.7331 14.947 14.8403 14.8403C14.9475 14.7337 15.0009 14.6159 15.0003 14.487V12.4678H15.8337V14.487C15.8337 14.8709 15.7053 15.1912 15.4487 15.4478C15.192 15.7045 14.8714 15.8331 14.487 15.8337H5.51366Z" fill="#767676"/>
</svg>
