<svg width="24" height="24" viewBox="0 0 24 24" fill="none" xmlns="http://www.w3.org/2000/svg">
<rect x="0.5" y="0.5" width="23" height="23" rx="11.5" stroke="#FF6738"/>
<path d="M10.4896 8.66669C10.4896 8.29848 10.1911 8 9.82294 8C9.45474 8 9.15625 8.29849 9.15625 8.66669V15.3335C9.15625 15.7017 9.45474 16.0002 9.82294 16.0002C10.1911 16.0002 10.4896 15.7017 10.4896 15.3335V8.66669ZM14.4897 8.66669C14.4897 8.29848 14.1913 8 13.8231 8C13.4549 8 13.1564 8.29849 13.1564 8.66669V15.3335C13.1564 15.7017 13.4549 16.0002 13.8231 16.0002C14.1913 16.0002 14.4897 15.7017 14.4897 15.3335V8.66669Z" fill="#FF6738"/>
</svg>
