<svg width="20" height="20" viewBox="0 0 20 20" fill="none" xmlns="http://www.w3.org/2000/svg">
<path d="M0.5 16.8327C0.5 15.595 0.991665 14.408 1.86683 13.5329C2.742 12.6577 3.92899 12.166 5.16667 12.166H14.5C15.7377 12.166 16.9247 12.6577 17.7998 13.5329C18.675 14.408 19.1667 15.595 19.1667 16.8327C19.1667 17.4515 18.9208 18.045 18.4832 18.4826C18.0457 18.9202 17.4522 19.166 16.8333 19.166H2.83333C2.21449 19.166 1.621 18.9202 1.18342 18.4826C0.745833 18.045 0.5 17.4515 0.5 16.8327Z" fill="#FF6738" fill-opacity="0.15" stroke="#FF6738" stroke-linejoin="round"/>
<path d="M9.83301 7.5C11.766 7.5 13.333 5.933 13.333 4C13.333 2.067 11.766 0.5 9.83301 0.5C7.90001 0.5 6.33301 2.067 6.33301 4C6.33301 5.933 7.90001 7.5 9.83301 7.5Z" fill="#FF6738" fill-opacity="0.15" stroke="#FF6738"/>
</svg>
