<svg width="39" height="39" viewBox="0 0 39 39" fill="none" xmlns="http://www.w3.org/2000/svg">
<path d="M32.5 29.874C32.5 30.6226 32.2498 31.2471 31.7493 31.7476C31.2488 32.2481 30.6237 32.4989 29.874 32.5H9.126C8.37742 32.5 7.75287 32.2492 7.25237 31.7476C6.75187 31.246 6.50108 30.6215 6.5 29.874L6.5 19.4691H8.125V29.874C8.125 30.1242 8.229 30.3539 8.437 30.563C8.645 30.7721 8.87467 30.8761 9.126 30.875H29.8756C30.1248 30.875 30.3539 30.771 30.563 30.563C30.7721 30.355 30.8761 30.1259 30.875 29.8756V19.4691H32.5V29.874ZM25.2509 12.2493L24.0809 13.39L20.3125 9.62162V24.063H18.6875V9.62162L14.9175 13.3916L13.7507 12.2509L19.5 6.5L25.2509 12.2493Z" fill="#767676"/>
</svg>
