<svg width="18" height="23" viewBox="0 0 18 23" fill="none" xmlns="http://www.w3.org/2000/svg">
<path d="M11.9034 2.32785L12.9166 0.881181C13.0528 0.686916 13.2606 0.554683 13.4942 0.513554C13.7279 0.472424 13.9683 0.525764 14.1626 0.661847L16.2801 2.14526C16.6844 2.42818 16.7824 2.98585 16.4995 3.3901L15.4862 4.83676C15.35 5.03103 15.1423 5.16326 14.9086 5.20439C14.675 5.24552 14.4346 5.19218 14.2402 5.0561L12.1227 3.57268C11.9287 3.43661 11.7966 3.22907 11.7554 2.99566C11.7143 2.76224 11.7675 2.52205 11.9034 2.32785ZM4.82814 20.0647C4.49156 20.6188 3.97064 21.1129 2.77889 21.5598L1.60756 22.0323C1.34739 22.1373 1.07906 22.0673 0.871394 21.9057M1.24706 17.5558C0.841644 18.0615 0.55581 18.7207 0.54356 19.9941L0.500394 21.257C0.491061 21.5376 0.64856 21.7663 0.871394 21.9057M4.82814 20.0647L13.3623 7.87068C13.4299 7.77454 13.4778 7.66601 13.5033 7.55132C13.5288 7.43662 13.5314 7.31801 13.511 7.2023C13.4906 7.08659 13.4475 6.97605 13.3842 6.87702C13.321 6.778 13.2388 6.69245 13.1424 6.62526L11.0261 5.14243C10.93 5.07493 10.8215 5.02705 10.7069 5.00154C10.5923 4.97603 10.4738 4.97338 10.3581 4.99376C10.2425 5.01413 10.132 5.05713 10.033 5.12028C9.93401 5.18343 9.84845 5.26549 9.78123 5.36176L1.24706 17.5558" stroke="#111111" stroke-linecap="round" stroke-linejoin="round"/>
</svg>
