<svg width="13" height="13" viewBox="0 0 13 13" fill="none" xmlns="http://www.w3.org/2000/svg">
<path d="M6.41667 9.69558L3.17258 6.45242L3.82158 5.79242L5.95833 7.92917V0H6.875V7.92917L9.01083 5.79333L9.66075 6.45242L6.41667 9.69558ZM1.48133 12.8333C1.05906 12.8333 0.70675 12.6922 0.424416 12.4098C0.142083 12.1275 0.000611111 11.7749 0 11.352V9.13092H0.916667V11.352C0.916667 11.4932 0.975333 11.6227 1.09267 11.7407C1.21 11.8586 1.33925 11.9173 1.48042 11.9167H11.3529C11.4935 11.9167 11.6227 11.858 11.7407 11.7407C11.8586 11.6233 11.9173 11.4938 11.9167 11.352V9.13092H12.8333V11.352C12.8333 11.7743 12.6922 12.1266 12.4098 12.4089C12.1275 12.6912 11.7749 12.8327 11.352 12.8333H1.48133Z" fill="#767676"/>
</svg>
