<svg width="28" height="28" viewBox="0 0 28 28" fill="none" xmlns="http://www.w3.org/2000/svg">
<path d="M4.66699 21.0007C4.66699 19.763 5.15866 18.576 6.03383 17.7008C6.909 16.8256 8.09598 16.334 9.33366 16.334H18.667C19.9047 16.334 21.0917 16.8256 21.9668 17.7008C22.842 18.576 23.3337 19.763 23.3337 21.0007C23.3337 21.6195 23.0878 22.213 22.6502 22.6506C22.2127 23.0882 21.6192 23.334 21.0003 23.334H7.00033C6.38149 23.334 5.78799 23.0882 5.35041 22.6506C4.91282 22.213 4.66699 21.6195 4.66699 21.0007Z" fill="white" stroke="#111111" stroke-linejoin="round"/>
<path d="M14 11.667C15.933 11.667 17.5 10.1 17.5 8.16699C17.5 6.234 15.933 4.66699 14 4.66699C12.067 4.66699 10.5 6.234 10.5 8.16699C10.5 10.1 12.067 11.667 14 11.667Z" fill="white" stroke="#111111"/>
</svg>
