< HEAD
<svg width="28" height="28" viewBox="0 0 28 28" fill="none" xmlns="http://www.w3.org/2000/svg">
<path d="M4.66699 21.0007C4.66699 19.763 5.15866 18.576 6.03383 17.7008C6.909 16.8256 8.09598 16.334 9.33366 16.334H18.667C19.9047 16.334 21.0917 16.8256 21.9668 17.7008C22.842 18.576 23.3337 19.763 23.3337 21.0007C23.3337 21.6195 23.0878 22.213 22.6502 22.6506C22.2127 23.0882 21.6192 23.334 21.0003 23.334H7.00033C6.38149 23.334 5.78799 23.0882 5.35041 22.6506C4.91282 22.213 4.66699 21.6195 4.66699 21.0007Z" fill="white" stroke="#111111" stroke-linejoin="round"/>
<path d="M14 11.667C15.933 11.667 17.5 10.1 17.5 8.16699C17.5 6.234 15.933 4.66699 14 4.66699C12.067 4.66699 10.5 6.234 10.5 8.16699C10.5 10.1 12.067 11.667 14 11.667Z" fill="white" stroke="#111111"/>
===
<svg width="17" height="17" viewBox="0 0 17 17" fill="none" xmlns="http://www.w3.org/2000/svg">
<path d="M0.5 14.5C0.5 13.4391 0.921427 12.4217 1.67157 11.6716C2.42172 10.9214 3.43913 10.5 4.5 10.5H12.5C13.5609 10.5 14.5783 10.9214 15.3284 11.6716C16.0786 12.4217 16.5 13.4391 16.5 14.5C16.5 15.0304 16.2893 15.5391 15.9142 15.9142C15.5391 16.2893 15.0304 16.5 14.5 16.5H2.5C1.96957 16.5 1.46086 16.2893 1.08579 15.9142C0.710714 15.5391 0.5 15.0304 0.5 14.5Z" stroke="black" stroke-linejoin="round"/>
<path d="M8.5 6.5C10.1569 6.5 11.5 5.15685 11.5 3.5C11.5 1.84315 10.1569 0.5 8.5 0.5C6.84315 0.5 5.5 1.84315 5.5 3.5C5.5 5.15685 6.84315 6.5 8.5 6.5Z" stroke="black"/>
> 77d6f52d6721023701a16cb84906de1ac2f761b2
</svg>
